<?xml version="1.0" standalone="no"?>
<!DOCTYPE svg PUBLIC "-//W3C//DTD SVG 20010904//EN"
 "http://www.w3.org/TR/2001/REC-SVG-20010904/DTD/svg10.dtd">
<svg version="1.0" xmlns="http://www.w3.org/2000/svg"
 width="512.000000pt" height="512.000000pt" viewBox="0 0 512.000000 512.000000"
 preserveAspectRatio="xMidYMid meet">
<metadata>
Created by potrace 1.11, written by Peter Selinger 2001-2013
</metadata>
<g transform="translate(0.000000,512.000000) scale(0.100000,-0.100000)"
fill="#000000" stroke="none">
<path d="M2320 4764 c-154 -18 -167 -20 -273 -45 -317 -74 -658 -246 -910
-458 -123 -104 -259 -246 -333 -346 -16 -22 -37 -49 -47 -60 -10 -11 -25 -31
-32 -45 -7 -14 -29 -48 -48 -76 -107 -159 -228 -451 -277 -669 -18 -78 -20
-87 -35 -180 -23 -142 -26 -468 -6 -605 20 -136 20 -140 47 -250 49 -198 156
-460 247 -603 20 -31 37 -59 37 -62 0 -2 25 -38 55 -80 344 -480 852 -806
1410 -905 39 -7 79 -14 90 -16 128 -24 517 -24 645 1 112 21 147 29 235 51
222 56 462 164 665 299 177 118 405 328 514 475 22 30 44 57 47 60 24 20 143
220 199 335 61 126 157 375 144 375 -2 0 0 8 5 18 9 17 58 252 59 282 0 8 4
38 8 65 10 60 10 401 1 465 -25 185 -32 223 -58 320 -138 518 -439 956 -864
1256 -132 93 -201 134 -341 201 -184 87 -446 166 -623 188 -30 4 -63 9 -75 11
-54 12 -380 10 -486 -2z"/>
</g>
</svg>
